<?xml version="1.0" encoding="UTF-8" standalone="no"?>
<svg
   xmlns:dc="http://purl.org/dc/elements/1.1/"
   xmlns:cc="http://creativecommons.org/ns#"
   xmlns:rdf="http://www.w3.org/1999/02/22-rdf-syntax-ns#"
   xmlns:svg="http://www.w3.org/2000/svg"
   xmlns="http://www.w3.org/2000/svg"
   viewBox="0 0 588 133.33333"
   height="133.33333"
   width="588"
   xml:space="preserve"
   id="svg2"
   version="1.1"><metadata
     id="metadata8"><rdf:RDF><cc:Work
         rdf:about=""><dc:format>image/svg+xml</dc:format><dc:type
           rdf:resource="http://purl.org/dc/dcmitype/StillImage" /></cc:Work></rdf:RDF></metadata><defs
     id="defs6" /><g
     transform="matrix(1.3333333,0,0,-1.3333333,0,133.33333)"
     id="g10"><g
       transform="scale(0.1)"
       id="g12"><path
         id="path14"
         style="fill:#1c1e70;fill-opacity:1;fill-rule:evenodd;stroke:none"
         d="M 194.922,544.77 V 104.301 C 224.691,81.4805 256.719,62.0703 290.98,46.1289 325.27,30.4297 360.738,18.75 397.379,11.0195 V 334.301 h 205.32 V 11.0195 c 36.68,7.7305 72.141,19.4102 106.442,35.1094 33.98,15.9414 66.058,35.3516 96.058,58.1721 V 546.762 L 499.84,799.102 194.922,544.77" /><path
         id="path16"
         style="fill:#006bb5;fill-opacity:1;fill-rule:evenodd;stroke:none"
         d="M 194.922,895.941 V 590.23 l 305.348,253.911 2.39,-1.993 302.539,-250.308 v 304.101 c -44.379,34.02 -92.347,59.918 -143.91,77.731 C 609.77,991.211 556.051,1000 500.27,1000 444.18,1000 390.352,991.211 338.828,973.672 287.27,955.859 239.301,929.961 194.922,895.941 M 159.84,515.27 11.9492,391.719 C 23.1211,341.762 41.1719,295 66.1719,251.41 91.1289,207.809 122.34,168.59 159.84,133.828 V 515.27 M 988.98,394.102 C 978.09,343.629 959.961,296.449 934.77,252.621 909.77,208.75 878.238,169.18 840.27,133.828 V 517.27 L 988.98,394.102" /><path
         id="path18"
         style="fill:#00708f;fill-opacity:1;fill-rule:evenodd;stroke:none"
         d="M 0,500.16 C 0,477.301 1.60156,454.41 4.76953,431.559 L 159.84,561.129 v 305.32 C 125.82,834.84 96.9883,799.488 73.3203,760.43 49.4102,721.371 31.2109,679.77 18.7109,635.66 6.21094,591.84 0,546.641 0,500.16 m 840.27,366.289 v -303.75 l 155.468,-128.32 c 2.66,21.793 3.992,43.711 3.992,65.781 0,46.481 -6.25,91.68 -18.75,135.5 -12.46,44.11 -30.55,85.711 -54.218,124.77 -23.91,39.058 -52.742,74.41 -86.492,106.019 M 432.5,4.64844 V 298.828 H 567.621 V 4.64844 c -45.199,-6.09766 -90.242,-6.09766 -135.121,0" /><path
         id="path20"
         style="fill:#1e2171;fill-opacity:1;fill-rule:nonzero;stroke:none"
         d="m 1199.22,825.23 h 240.47 c 40.08,0 70.86,-9.96 92.34,-29.839 21.45,-19.801 32.19,-44.371 32.19,-73.75 0,-24.61 -7.66,-45.621 -22.97,-63.121 -10.23,-11.801 -25.16,-21.059 -44.84,-27.821 29.88,-7.179 51.87,-19.527 65.93,-37.027 14.07,-17.5 21.1,-39.492 21.1,-65.942 0,-21.558 -5,-40.929 -15,-58.121 -10,-17.187 -23.71,-30.859 -41.1,-40.937 -10.86,-6.172 -27.11,-10.703 -48.75,-13.594 -28.98,-3.75 -48.2,-5.629 -57.65,-5.629 h -221.72 z m 129.53,-163.121 h 55.94 c 20,0 33.9,3.442 41.72,10.313 7.89,6.957 11.87,16.957 11.87,30 0,12.066 -3.98,21.488 -11.87,28.277 -7.82,6.879 -21.49,10.321 -40.94,10.321 h -56.72 z m 0,-163.281 h 65.63 c 22.07,0 37.65,3.902 46.71,11.723 9.07,7.808 13.6,18.32 13.6,31.558 0,12.27 -4.49,22.192 -13.44,29.692 -8.98,7.5 -24.69,11.25 -47.19,11.25 h -65.31 z m 315.04,211.723 h 108.12 v -49.223 c 10.39,21.332 21.14,36.012 32.19,44.063 11.02,8.007 24.69,12.031 40.94,12.031 17.07,0 35.7,-5.313 55.94,-15.942 l -35.78,-82.179 c -13.68,5.699 -24.46,8.59 -32.35,8.59 -15.12,0 -26.83,-6.25 -35.15,-18.75 -11.88,-17.621 -17.82,-50.551 -17.82,-98.75 V 409.449 h -116.09 z" /><path
         id="path22"
         style="fill:#1e2171;fill-opacity:1;fill-rule:nonzero;stroke:none"
         d="m 2243.59,531.328 h -231.4 c 2.07,-18.437 7.07,-32.269 15,-41.406 11.13,-13.043 25.7,-19.531 43.75,-19.531 11.33,0 22.11,2.847 32.34,8.589 6.25,3.52 12.97,9.848 20.16,18.911 l 113.59,-10.469 c -17.42,-30.231 -38.4,-51.953 -62.97,-65.152 -24.61,-13.129 -59.84,-19.692 -105.78,-19.692 -39.92,0 -71.33,5.621 -94.22,16.871 -22.81,11.25 -41.72,29.102 -56.72,53.602 -15,24.449 -22.5,53.277 -22.5,86.398 0,47.071 15.04,85.16 45.16,114.223 30.2,29.137 71.88,43.75 125,43.75 43.01,0 77.03,-6.524 102.03,-19.531 25,-13.051 43.99,-31.95 57.03,-56.719 13.01,-24.801 19.53,-57.031 19.53,-96.723 z m -117.34,55.313 c -2.3,22.379 -8.36,38.359 -18.13,47.968 -9.68,9.692 -22.5,14.532 -38.43,14.532 -18.36,0 -32.97,-7.301 -43.91,-21.871 -6.99,-9.071 -11.4,-22.622 -13.28,-40.629 z" /><path
         id="path24"
         style="fill:#1e2171;fill-opacity:1;fill-rule:nonzero;stroke:none"
         d="m 2297.15,710.551 h 107.5 V 661.48 c 16.01,20.079 32.26,34.418 48.75,42.969 16.44,8.641 36.48,12.973 60.15,12.973 31.96,0 56.96,-9.531 75,-28.594 18.01,-18.988 27.04,-48.277 27.04,-87.969 v -191.41 h -115.94 v 165.629 c 0,18.832 -3.52,32.192 -10.47,40 -6.99,7.891 -16.84,11.871 -29.53,11.871 -13.99,0 -25.31,-5.308 -34.06,-15.929 -8.68,-10.551 -12.97,-29.5 -12.97,-56.879 V 409.449 h -115.47 z" /><path
         id="path26"
         style="fill:#1e2171;fill-opacity:1;fill-rule:nonzero;stroke:none"
         d="m 2685.04,825.23 h 117.97 V 610.859 l 86.25,99.692 h 142.03 L 2923.32,605.078 3037.54,409.449 h -130.16 l -60.93,120.781 -43.44,-42.5 v -78.281 h -117.97 z" /><path
         id="path28"
         style="fill:#026cb6;fill-opacity:1;fill-rule:nonzero;stroke:none"
         d="m 1195.94,340.699 h 154.84 v -43.59 h -91.87 v -35.308 h 78.59 v -40.942 h -78.59 v -82.808 h -62.97 z m 229.49,-103.429 -53.75,5.781 c 1.95,9.371 4.88,16.719 8.75,22.027 3.83,5.391 9.37,10.082 16.56,14.063 5.08,2.89 12.19,5.16 21.25,6.718 9.06,1.563 18.83,2.34 29.38,2.34 16.87,0 30.39,-0.929 40.62,-2.808 10.2,-1.871 18.67,-5.86 25.47,-11.871 4.77,-4.18 8.59,-10.079 11.41,-17.661 2.81,-7.621 4.22,-14.839 4.22,-21.718 v -64.84 c 0,-6.879 0.39,-12.313 1.25,-16.25 0.82,-3.992 2.73,-8.992 5.78,-15 h -52.82 c -2.18,3.75 -3.59,6.597 -4.21,8.59 -0.63,1.949 -1.25,5.078 -1.88,9.379 -7.42,-7.11 -14.76,-12.149 -22.03,-15.161 -9.92,-4.058 -21.48,-6.089 -34.69,-6.089 -17.5,0 -30.78,3.98 -39.84,12.031 -9.06,8.121 -13.6,18.16 -13.6,30.148 0,11.141 3.21,20.321 9.69,27.5 6.56,7.192 18.63,12.5 36.25,15.942 21.14,4.257 34.85,7.23 41.1,8.91 6.25,1.75 12.85,3.98 19.84,6.719 0,6.949 -1.41,11.789 -4.22,14.531 -2.81,2.808 -7.81,4.219 -15,4.219 -9.3,0 -16.21,-1.532 -20.78,-4.54 -3.67,-2.3 -6.56,-6.64 -8.75,-12.96 z m 48.75,-29.54 c -7.73,-2.808 -15.74,-5.269 -24.06,-7.339 -11.49,-3.051 -18.71,-6.012 -21.72,-8.911 -3.13,-3.121 -4.69,-6.64 -4.69,-10.46 0,-4.379 1.49,-7.969 4.53,-10.79 3.13,-2.808 7.66,-4.21 13.6,-4.21 6.32,0 12.18,1.48 17.5,4.531 5.39,3 9.21,6.719 11.4,11.09 2.27,4.379 3.44,10.039 3.44,17.031 z" /><path
         id="path30"
         style="fill:#026cb6;fill-opacity:1;fill-rule:nonzero;stroke:none"
         d="m 1673.09,195.391 53.43,-6.09 c -2.93,-11.18 -7.77,-20.781 -14.53,-28.91 -6.79,-8.121 -15.39,-14.493 -25.78,-19.063 -10.43,-4.449 -23.71,-6.719 -39.84,-6.719 -15.63,0 -28.67,1.481 -39.07,4.371 -10.31,2.899 -19.21,7.579 -26.71,14.071 -7.43,6.437 -13.25,14.058 -17.5,22.808 -4.3,8.75 -6.41,20.352 -6.41,34.84 0,15.082 2.58,27.699 7.81,37.821 3.75,7.378 8.91,13.98 15.47,19.839 6.56,5.821 13.28,10.192 20.16,13.121 11.01,4.461 25.08,6.719 42.18,6.719 23.95,0 42.23,-4.328 54.85,-12.969 12.58,-8.55 21.4,-21.05 26.4,-37.5 l -52.81,-7.031 c -1.68,6.25 -4.69,10.942 -9.06,14.071 -4.38,3.199 -10.27,4.839 -17.66,4.839 -9.37,0 -16.95,-3.359 -22.65,-10 -5.75,-6.679 -8.6,-16.8 -8.6,-30.308 0,-12.11 2.85,-21.332 8.6,-27.66 5.7,-6.25 12.97,-9.371 21.72,-9.371 7.38,0 13.59,1.871 18.59,5.621 5.08,3.828 8.91,9.687 11.41,17.5 z" /><path
         id="path32"
         style="fill:#026cb6;fill-opacity:1;fill-rule:nonzero;stroke:none"
         d="m 1754.65,340.699 h 56.25 v -38.277 h -56.25 z m 0,-55.777 h 56.25 V 138.051 h -56.25 z" /><path
         id="path34"
         style="fill:#026cb6;fill-opacity:1;fill-rule:nonzero;stroke:none"
         d="m 1849.06,138.039 h 56.4102 v 202.66 H 1849.06 Z" /><path
         id="path36"
         style="fill:#026cb6;fill-opacity:1;fill-rule:nonzero;stroke:none"
         d="M 1943.75,340.699 H 2000 v -38.277 h -56.25 z m 0,-55.777 H 2000 V 138.051 h -56.25 z" /><path
         id="path38"
         style="fill:#026cb6;fill-opacity:1;fill-rule:nonzero;stroke:none"
         d="M 2104.06,340.699 V 284.922 H 2135 v -41.094 h -30.94 v -52.187 c 0,-6.25 0.63,-10.391 1.88,-12.34 1.76,-3.129 5,-4.692 9.68,-4.692 4.07,0 9.85,1.172 17.35,3.59 l 4.22,-38.898 c -13.99,-3.012 -26.99,-4.531 -39.07,-4.531 -13.98,0 -24.29,1.789 -30.93,5.308 -6.68,3.633 -11.64,9.102 -14.85,16.402 -3.12,7.27 -4.68,19.141 -4.68,35.629 v 51.719 h -20.63 v 41.094 h 20.63 v 26.879 z" /><path
         id="path40"
         style="fill:#026cb6;fill-opacity:1;fill-rule:nonzero;stroke:none"
         d="m 2145.35,284.922 h 59.53 l 30.32,-97.813 27.96,97.813 h 55.47 l -58.12,-157.031 c -6.68,-17.813 -13.52,-29.8402 -20.47,-36.0902 -9.69,-8.832 -24.53,-13.2813 -44.53,-13.2813 -8.13,0 -20.71,1.0899 -37.66,3.2813 l -4.37,39.2192 c 8.12,-2.579 17.11,-3.911 27.03,-3.911 6.64,0 12.03,1.563 16.09,4.692 4.14,3.039 7.66,8.429 10.47,16.25 z" /><path
         id="path42"
         style="fill:#026cb6;fill-opacity:1;fill-rule:nonzero;stroke:none"
         d="m 2432.3,340.699 h 82.5 l 31.72,-123.277 31.72,123.277 h 82.03 V 138.051 h -51.09 v 154.527 l -39.69,-154.527 h -46.25 l -39.53,154.527 V 138.051 h -51.41 z" /><path
         id="path44"
         style="fill:#026cb6;fill-opacity:1;fill-rule:nonzero;stroke:none"
         d="m 2747.66,237.27 -53.75,5.781 c 1.95,9.371 4.88,16.719 8.75,22.027 3.82,5.391 9.37,10.082 16.56,14.063 5.08,2.89 12.19,5.16 21.25,6.718 9.06,1.563 18.83,2.34 29.37,2.34 16.88,0 30.39,-0.929 40.63,-2.808 10.19,-1.871 18.67,-5.86 25.47,-11.871 4.76,-4.18 8.59,-10.079 11.4,-17.661 2.82,-7.621 4.22,-14.839 4.22,-21.718 v -64.84 c 0,-6.879 0.39,-12.313 1.25,-16.25 0.82,-3.992 2.74,-8.992 5.78,-15 h -52.81 c -2.19,3.75 -3.59,6.597 -4.22,8.59 -0.62,1.949 -1.25,5.078 -1.87,9.379 -7.42,-7.11 -14.77,-12.149 -22.03,-15.161 -9.93,-4.058 -21.49,-6.089 -34.69,-6.089 -17.5,0 -30.78,3.98 -39.85,12.031 -9.06,8.121 -13.59,18.16 -13.59,30.148 0,11.141 3.2,20.321 9.69,27.5 6.56,7.192 18.63,12.5 36.25,15.942 21.13,4.257 34.84,7.23 41.09,8.91 6.25,1.75 12.85,3.98 19.85,6.719 0,6.949 -1.41,11.789 -4.22,14.531 -2.81,2.808 -7.81,4.219 -15,4.219 -9.3,0 -16.21,-1.532 -20.78,-4.54 -3.68,-2.3 -6.57,-6.64 -8.75,-12.96 z m 48.75,-29.54 c -7.74,-2.808 -15.75,-5.269 -24.07,-7.339 -11.48,-3.051 -18.71,-6.012 -21.72,-8.911 -3.12,-3.121 -4.68,-6.64 -4.68,-10.46 0,-4.379 1.48,-7.969 4.53,-10.79 3.12,-2.808 7.65,-4.21 13.59,-4.21 6.33,0 12.19,1.48 17.5,4.531 5.39,3 9.22,6.719 11.41,11.09 2.26,4.379 3.44,10.039 3.44,17.031 z" /><path
         id="path46"
         style="fill:#026cb6;fill-opacity:1;fill-rule:nonzero;stroke:none"
         d="m 2887.5,340.699 h 56.25 v -38.277 h -56.25 z m 0,-55.777 h 56.25 V 138.051 h -56.25 z" /><path
         id="path48"
         style="fill:#026cb6;fill-opacity:1;fill-rule:nonzero;stroke:none"
         d="m 2980,284.922 h 52.34 V 261.02 c 7.82,9.679 15.71,16.601 23.75,20.781 8.01,4.25 17.82,6.398 29.38,6.398 15.51,0 27.65,-4.648 36.41,-13.898 8.82,-9.301 13.28,-23.602 13.28,-42.973 v -93.277 h -56.41 v 80.777 c 0,9.141 -1.72,15.66 -5.16,19.531 -3.43,3.832 -8.24,5.782 -14.37,5.782 -6.88,0 -12.46,-2.621 -16.72,-7.813 -4.18,-5.117 -6.25,-14.379 -6.25,-27.808 V 138.051 H 2980 Z" /><path
         id="path50"
         style="fill:#026cb6;fill-opacity:1;fill-rule:nonzero;stroke:none"
         d="m 3236.91,340.699 v -55.777 h 30.94 v -41.094 h -30.94 v -52.187 c 0,-6.25 0.63,-10.391 1.88,-12.34 1.76,-3.129 5,-4.692 9.69,-4.692 4.06,0 9.84,1.172 17.34,3.59 l 4.22,-38.898 c -13.99,-3.012 -26.99,-4.531 -39.06,-4.531 -13.99,0 -24.3,1.789 -30.94,5.308 -6.68,3.633 -11.64,9.102 -14.84,16.402 -3.13,7.27 -4.69,19.141 -4.69,35.629 v 51.719 h -20.63 v 41.094 h 20.63 v 26.879 z" /><path
         id="path52"
         style="fill:#026cb6;fill-opacity:1;fill-rule:nonzero;stroke:none"
         d="m 3457.58,197.422 h -112.81 c 1.01,-8.981 3.47,-15.703 7.34,-20.152 5.39,-6.372 12.5,-9.54 21.25,-9.54 5.51,0 10.78,1.411 15.78,4.219 3.01,1.762 6.29,4.852 9.84,9.223 l 55.47,-5.152 c -8.55,-14.692 -18.83,-25.282 -30.78,-31.719 -11.99,-6.332 -29.18,-9.531 -51.56,-9.531 -19.49,0 -34.81,2.73 -45.94,8.121 -11.17,5.507 -20.39,14.218 -27.65,26.089 -7.31,11.961 -10.94,26.02 -10.94,42.192 0,22.887 7.34,41.449 22.03,55.629 14.69,14.25 35,21.398 60.94,21.398 20.93,0 37.5,-3.199 49.68,-9.527 12.19,-6.371 21.45,-15.582 27.82,-27.652 6.33,-12.11 9.53,-27.821 9.53,-47.192 z m -57.19,27.027 c -1.17,10.821 -4.14,18.602 -8.91,23.281 -4.68,4.77 -10.89,7.192 -18.59,7.192 -8.98,0 -16.17,-3.551 -21.56,-10.621 -3.36,-4.5 -5.47,-11.102 -6.41,-19.852 z" /><path
         id="path54"
         style="fill:#026cb6;fill-opacity:1;fill-rule:nonzero;stroke:none"
         d="m 3483.67,284.922 h 52.35 V 261.02 c 7.81,9.679 15.7,16.601 23.75,20.781 8,4.25 17.81,6.398 29.37,6.398 15.51,0 27.66,-4.648 36.41,-13.898 8.83,-9.301 13.28,-23.602 13.28,-42.973 v -93.277 h -56.41 v 80.777 c 0,9.141 -1.72,15.66 -5.15,19.531 -3.44,3.832 -8.25,5.782 -14.38,5.782 -6.87,0 -12.46,-2.621 -16.72,-7.813 -4.18,-5.117 -6.25,-14.379 -6.25,-27.808 v -70.469 h -56.25 z" /><path
         id="path56"
         style="fill:#026cb6;fill-opacity:1;fill-rule:nonzero;stroke:none"
         d="m 3724.02,237.27 -53.75,5.781 c 1.96,9.371 4.89,16.719 8.75,22.027 3.83,5.391 9.38,10.082 16.57,14.063 5.07,2.89 12.18,5.16 21.25,6.718 9.06,1.563 18.82,2.34 29.37,2.34 16.88,0 30.39,-0.929 40.63,-2.808 10.19,-1.871 18.67,-5.86 25.46,-11.871 4.77,-4.18 8.6,-10.079 11.41,-17.661 2.81,-7.621 4.22,-14.839 4.22,-21.718 v -64.84 c 0,-6.879 0.39,-12.313 1.25,-16.25 0.82,-3.992 2.73,-8.992 5.78,-15 h -52.81 c -2.19,3.75 -3.6,6.597 -4.22,8.59 -0.63,1.949 -1.25,5.078 -1.88,9.379 -7.42,-7.11 -14.76,-12.149 -22.03,-15.161 -9.92,-4.058 -21.48,-6.089 -34.68,-6.089 -17.5,0 -30.79,3.98 -39.85,12.031 -9.06,8.121 -13.59,18.16 -13.59,30.148 0,11.141 3.2,20.321 9.69,27.5 6.56,7.192 18.63,12.5 36.25,15.942 21.13,4.257 34.84,7.23 41.09,8.91 6.25,1.75 12.85,3.98 19.84,6.719 0,6.949 -1.4,11.789 -4.22,14.531 -2.81,2.808 -7.81,4.219 -15,4.219 -9.29,0 -16.21,-1.532 -20.78,-4.54 -3.67,-2.3 -6.56,-6.64 -8.75,-12.96 z m 48.75,-29.54 c -7.73,-2.808 -15.74,-5.269 -24.06,-7.339 -11.48,-3.051 -18.71,-6.012 -21.72,-8.911 -3.12,-3.121 -4.69,-6.64 -4.69,-10.46 0,-4.379 1.49,-7.969 4.54,-10.79 3.12,-2.808 7.65,-4.21 13.59,-4.21 6.33,0 12.19,1.48 17.5,4.531 5.39,3 9.22,6.719 11.41,11.09 2.26,4.379 3.43,10.039 3.43,17.031 z" /><path
         id="path58"
         style="fill:#026cb6;fill-opacity:1;fill-rule:nonzero;stroke:none"
         d="m 3861.84,284.922 h 52.34 V 261.02 c 7.81,9.679 15.7,16.601 23.75,20.781 8.01,4.25 17.81,6.398 29.37,6.398 15.51,0 27.66,-4.648 36.41,-13.898 8.83,-9.301 13.28,-23.602 13.28,-42.973 v -93.277 h -56.4 v 80.777 c 0,9.141 -1.72,15.66 -5.16,19.531 -3.44,3.832 -8.24,5.782 -14.38,5.782 -6.87,0 -12.46,-2.621 -16.71,-7.813 -4.18,-5.117 -6.25,-14.379 -6.25,-27.808 v -70.469 h -56.25 z" /><path
         id="path60"
         style="fill:#026cb6;fill-opacity:1;fill-rule:nonzero;stroke:none"
         d="m 4160.47,195.391 53.44,-6.09 c -2.93,-11.18 -7.78,-20.781 -14.53,-28.91 -6.8,-8.121 -15.4,-14.493 -25.79,-19.063 -10.43,-4.449 -23.71,-6.719 -39.84,-6.719 -15.63,0 -28.67,1.481 -39.06,4.371 -10.31,2.899 -19.22,7.579 -26.72,14.071 -7.42,6.437 -13.24,14.058 -17.5,22.808 -4.3,8.75 -6.41,20.352 -6.41,34.84 0,15.082 2.58,27.699 7.82,37.821 3.74,7.378 8.9,13.98 15.46,19.839 6.57,5.821 13.28,10.192 20.16,13.121 11.02,4.461 25.08,6.719 42.19,6.719 23.94,0 42.22,-4.328 54.84,-12.969 12.58,-8.55 21.41,-21.05 26.41,-37.5 l -52.82,-7.031 c -1.67,6.25 -4.68,10.942 -9.06,14.071 -4.37,3.199 -10.27,4.839 -17.65,4.839 -9.38,0 -16.96,-3.359 -22.66,-10 -5.74,-6.679 -8.59,-16.8 -8.59,-30.308 0,-12.11 2.85,-21.332 8.59,-27.66 5.7,-6.25 12.97,-9.371 21.72,-9.371 7.38,0 13.59,1.871 18.59,5.621 5.08,3.828 8.91,9.687 11.41,17.5 z" /><path
         id="path62"
         style="fill:#026cb6;fill-opacity:1;fill-rule:nonzero;stroke:none"
         d="m 4402.97,197.422 h -112.81 c 1.01,-8.981 3.47,-15.703 7.34,-20.152 5.39,-6.372 12.5,-9.54 21.25,-9.54 5.51,0 10.78,1.411 15.78,4.219 3.01,1.762 6.29,4.852 9.85,9.223 l 55.46,-5.152 c -8.55,-14.692 -18.82,-25.282 -30.78,-31.719 -11.99,-6.332 -29.18,-9.531 -51.56,-9.531 -19.49,0 -34.8,2.73 -45.94,8.121 -11.17,5.507 -20.39,14.218 -27.65,26.089 -7.31,11.961 -10.94,26.02 -10.94,42.192 0,22.887 7.34,41.449 22.03,55.629 14.69,14.25 35,21.398 60.94,21.398 20.94,0 37.5,-3.199 49.68,-9.527 12.19,-6.371 21.45,-15.582 27.82,-27.652 6.33,-12.11 9.53,-27.821 9.53,-47.192 z m -57.19,27.027 c -1.17,10.821 -4.14,18.602 -8.9,23.281 -4.69,4.77 -10.9,7.192 -18.6,7.192 -8.98,0 -16.17,-3.551 -21.56,-10.621 -3.36,-4.5 -5.47,-11.102 -6.41,-19.852 z" /></g></g></svg>