<?xml version="1.0" encoding="utf-8"?>
<!-- Generator: Adobe Illustrator 23.0.3, SVG Export Plug-In . SVG Version: 6.00 Build 0)  -->
<svg version="1.1" xmlns="http://www.w3.org/2000/svg" xmlns:xlink="http://www.w3.org/1999/xlink" x="0px" y="0px"
	 viewBox="0 0 500 500" style="enable-background:new 0 0 500 500;" xml:space="preserve">
<style type="text/css">
	.st0{display:none;}
	.st1{fill:#1A0970;}
	.st2{fill:#FFFFFF;}
	.st3{fill:none;}
	.st4{font-family:'Impact';}
	.st5{font-size:48.7697px;}
	.st6{font-size:51.5447px;}
	.st7{letter-spacing:1.01;}
	.st8{font-size:51.3369px;}
	.st9{letter-spacing:1;}
	.st10{font-size:51.172px;}
	.st11{letter-spacing:0.99;}
	.st12{font-size:51.092px;}
	.st13{font-size:51.1494px;}
	.st14{font-size:51.3226px;}
	.st15{font-size:51.4164px;}
	.st16{font-size:51.5204px;}
	.st17{font-size:51.4476px;}
	.st18{font-size:51.3552px;}
	.st19{font-size:51.228px;}
	.st20{font-size:51.1407px;}
	.st21{font-size:51.3843px;}
	.st22{font-size:51.227px;}
	.st23{font-size:51.1264px;}
	.st24{font-size:51.5162px;}
	.st25{font-size:51.5653px;}
	.st26{font-size:51.5576px;}
</style>
<g id="Layer_4" class="st0">
</g>
<g id="Layer_1">
	<g>
		<path class="st1" d="M249.83,471.06c-59.6,0-115.64-22.97-157.78-64.67c-42.14-41.7-65.35-97.15-65.35-156.12
			c0-58.98,23.21-114.42,65.35-156.13c42.15-41.7,98.18-64.67,157.78-64.67c59.6,0,115.64,22.97,157.78,64.67
			c42.14,41.7,65.35,97.15,65.35,156.13c0,58.98-23.21,114.42-65.35,156.12C365.47,448.09,309.43,471.06,249.83,471.06z"/>
		<path d="M249.83,29.97c30.06,0,59.22,5.82,86.66,17.31c26.51,11.1,50.32,26.98,70.77,47.21c20.45,20.23,36.5,43.79,47.71,70.02
			c11.61,27.16,17.49,56.01,17.49,85.75s-5.89,58.59-17.49,85.75c-11.21,26.23-27.27,49.79-47.71,70.02
			c-20.45,20.23-44.26,36.12-70.77,47.21c-27.45,11.49-56.61,17.31-86.66,17.31s-59.22-5.82-86.66-17.31
			c-26.51-11.1-50.32-26.98-70.77-47.21c-20.45-20.23-36.5-43.79-47.71-70.02C33.08,308.85,27.19,280,27.19,250.26
			s5.89-58.59,17.49-85.75c11.21-26.23,27.26-49.79,47.71-70.02c20.45-20.23,44.26-36.12,70.77-47.21
			C190.61,35.79,219.77,29.97,249.83,29.97 M249.83,28.97c-123.51,0-223.64,99.08-223.64,221.3s100.13,221.3,223.64,221.3
			s223.64-99.08,223.64-221.3S373.34,28.97,249.83,28.97L249.83,28.97z"/>
	</g>
	<g>
		<ellipse class="st2" cx="249.83" cy="250.56" rx="133.59" ry="132.18"/>
		<path d="M249.83,118.87c35.55,0,68.97,13.7,94.11,38.57c25.13,24.87,38.98,57.94,38.98,93.11s-13.84,68.24-38.98,93.11
			c-25.14,24.87-58.56,38.57-94.11,38.57s-68.97-13.7-94.11-38.57c-25.13-24.87-38.98-57.94-38.98-93.11s13.84-68.24,38.98-93.11
			C180.86,132.57,214.28,118.87,249.83,118.87 M249.83,117.87c-74.05,0-134.09,59.4-134.09,132.68s60.03,132.68,134.09,132.68
			s134.09-59.4,134.09-132.68S323.88,117.87,249.83,117.87L249.83,117.87z"/>
	</g>
	<g>
		<rect x="7.59" y="202.01" width="484.87" height="76.38"/>
	</g>
</g>
<g id="Layer_2">
	<rect x="14.15" y="223.69" class="st3" width="475.57" height="82.69"/>
	<text transform="matrix(1.0106 0 0 1.21 14.1449 262.2676)" class="st2 st4 st5">Brenk Construction LLC.</text>
</g>
<g id="Layer_5">
	<polygon class="st3" points="121.06,165.35 108.05,190.92 66.29,170.13 79.3,144.55 	"/>
	<text transform="matrix(0.4043 -0.9069 0.9165 0.4001 103.5619 186.606)" class="st2 st4 st6 st7">F</text>
	<polygon class="st3" points="155.77,126.88 136.13,150.15 101.83,121.81 121.47,98.54 	"/>
	<text transform="matrix(0.6972 -0.7183 0.7248 0.689 131.5945 146.4073)" class="st2 st4 st8 st9">A</text>
	<polygon class="st3" points="208.37,98.18 177.52,115.14 154.91,74.74 185.77,57.78 	"/>
	<text transform="matrix(0.889 -0.474 0.4771 0.8789 174.4582 109.6756)" class="st2 st4 st10 st11">C</text>
	
		<rect x="221.51" y="50.01" transform="matrix(0.9837 -0.1796 0.1796 0.9837 -9.1697 42.9126)" class="st3" width="21.75" height="44.16"/>
	<text transform="matrix(1.0042 -0.1133 0.1121 0.9937 224.7245 90.7101)" class="st2 st4 st12 st11">I</text>
	<polygon class="st3" points="305.46,104.47 275.88,102.85 278.76,55.79 308.34,57.4 	"/>
	<text transform="matrix(0.98 0.2372 -0.2416 0.9704 277.3635 91.5321)" class="st2 st4 st13 st11">L</text>
	<polygon class="st3" points="417.51,155.26 320.16,135.23 340.85,42.37 438.2,62.41 	"/>
	<text transform="matrix(0.8197 0.5756 -0.5831 0.8124 326.1051 108.548)" class="st2 st4 st14 st9">I</text>
	<polygon class="st3" points="372.1,157.45 355.77,135.24 391.91,109.24 408.24,131.45 	"/>
	<text transform="matrix(0.6485 0.7584 -0.7667 0.642 360.529 135.1218)" class="st2 st4 st15 st9">T</text>
	<polygon class="st3" points="362.47,200.03 420,124.86 510.21,195.19 452.69,270.36 	"/>
	<text transform="matrix(0.3909 0.9138 -0.9227 0.3855 387.0006 167.9706)" class="st2 st4 st16 st7">Y</text>
	<polygon class="st3" points="89.3,402.48 59.53,361.71 109.81,325.76 139.58,366.53 	"/>
	<text transform="matrix(0.5878 0.8049 -0.8134 0.5817 76.7245 349.4027)" class="st2 st4 st17 st9">A</text>
	<polygon class="st3" points="131.75,430.01 94.07,393.76 131.29,355.86 168.98,392.1 	"/>
	<text transform="matrix(0.721 0.6934 -0.7007 0.7135 102.8025 384.8264)" class="st2 st4 st18 st9">I</text>
	<polygon class="st3" points="158.13,457.1 117.96,432.21 153.59,375.86 193.77,400.75 	"/>
	<text transform="matrix(0.8545 0.5295 -0.5344 0.8452 131.8889 410.0753)" class="st2 st4 st19 st11">N</text>
	<polygon class="st3" points="227.72,477.56 173.46,460.72 193.57,397.27 247.83,414.11 	"/>
	<text transform="matrix(0.9633 0.299 -0.3021 0.9533 181.2991 435.874)" class="st2 st4 st20 st11">T</text>
	<rect x="236.38" y="407.62" class="st3" width="56.86" height="67.35"/>
	<text transform="matrix(1.0106 0 0 1 236.3822 448.0322)" class="st2 st4 st12 st11">E</text>
	<polygon class="st3" points="433.73,371.43 398.07,409.63 355.67,370.87 391.33,332.68 	"/>
	<text transform="matrix(0.6819 -0.7304 0.7381 0.6747 385.6689 398.254)" class="st2 st4 st21 st9">N</text>
	<polygon class="st3" points="386.51,421.89 351.41,441.87 323.05,393.11 358.14,373.12 	"/>
	<text transform="matrix(0.8736 -0.4975 0.5028 0.8644 343.4118 428.0802)" class="st2 st4 st22 st11">A</text>
	<polygon class="st3" points="323.15,446 291.21,454.22 278.59,406.16 310.53,397.94 	"/>
	<text transform="matrix(0.9774 -0.2513 0.254 0.9672 288.8912 445.308)" class="st2 st4 st23 st11">N</text>
	<polygon class="st3" points="448.13,327.2 426.92,367.21 379.62,342.65 400.83,302.64 	"/>
	<text transform="matrix(0.4657 -0.8782 0.8875 0.4608 415.8113 361.4473)" class="st2 st4 st24 st7">C</text>
	<polygon class="st3" points="474.8,266.45 454.38,325.33 400.1,306.93 420.52,248.05 	"/>
	<text transform="matrix(0.3251 -0.9374 0.947 0.3211 438.7147 319.9947)" class="st2 st4 st25 st7">E</text>
	<polygon class="st3" points="70.36,345.14 50.88,299.62 90.66,282.95 110.14,328.46 	"/>
	<text transform="matrix(0.3734 0.9195 -0.9292 0.3695 53.903 298.363)" class="st2 st4 st26 st7">M</text>
</g>
</svg>
